<svg version="1.1" id="Layer_1" xmlns="http://www.w3.org/2000/svg" xmlns:xlink="http://www.w3.org/1999/xlink" x="0px" y="0px"
	 width="100%" viewBox="0 0 1024 672" enable-background="new 0 0 1024 672" xml:space="preserve">
<path fill="#000000" opacity="1.000000" stroke="none" 
	d="
M204.945190,321.168274 
	C213.748428,300.881104 228.525192,287.845825 249.539322,282.423248 
	C253.946167,281.286133 255.501114,279.067505 256.517822,275.290405 
	C264.701202,244.888504 277.985046,216.852570 296.402588,191.354492 
	C333.331665,140.228195 382.164459,105.882835 442.908356,88.784157 
	C448.327240,87.258804 450.616791,84.976433 451.685059,79.433189 
	C458.112396,46.081654 486.562683,24.044624 520.371338,25.755186 
	C550.619629,27.285612 577.234314,51.655190 581.138428,81.814064 
	C581.757935,86.599892 583.729675,88.430473 588.173218,89.823608 
	C675.443665,117.184402 734.786133,173.927490 766.255981,259.786011 
	C768.199768,265.089111 769.894470,270.524872 771.147217,276.025940 
	C772.037720,279.936584 773.941345,281.761230 777.794922,282.918060 
	C806.568970,291.556244 825.269592,316.627960 825.276489,346.163940 
	C825.283264,375.094177 805.919250,400.896820 777.829529,408.952881 
	C773.908325,410.077515 772.270813,412.063782 771.147827,415.833160 
	C744.767944,504.379547 688.470520,565.123535 601.816956,597.509399 
	C596.523254,599.487915 591.101562,601.169434 585.649902,602.662109 
	C582.410217,603.549011 580.827087,605.045837 579.971436,608.535706 
	C573.091919,636.595154 548.975220,658.301270 516.289490,658.827698 
	C487.000519,659.299500 460.563873,638.866455 452.983673,610.643677 
	C451.939972,606.757812 450.204132,604.973511 446.289062,603.876038 
	C365.889709,581.336731 307.627869,532.297241 271.430206,457.096802 
	C265.210938,444.176239 260.317963,430.695892 256.702209,416.807159 
	C255.618561,412.644684 253.597382,410.476715 249.269226,409.370087 
	C220.343170,401.974487 199.869644,375.574554 200.068787,345.900452 
	C200.124741,337.563965 201.619720,329.340424 204.945190,321.168274 
M590.500000,356.094452 
	C570.345520,356.086121 550.191040,356.075958 530.036560,356.071594 
	C527.165161,356.070953 524.320740,355.718475 524.333496,360.182251 
	C524.419006,389.997253 524.390869,419.812714 524.316467,449.627838 
	C524.308899,452.653656 525.486023,453.663086 528.438477,453.773804 
	C552.074219,454.660339 575.543091,457.153259 598.789368,461.561371 
	C602.802368,462.322327 605.286499,461.198334 607.105408,457.331238 
	C612.210022,446.477966 617.173950,435.580292 621.189209,424.266571 
	C628.283936,404.276093 633.356018,383.834351 634.639282,362.594788 
	C635.028137,356.158386 634.757263,356.115631 628.477661,356.105194 
	C616.151794,356.084747 603.825867,356.096771 590.500000,356.094452 
M424.500000,356.061066 
	C417.835693,356.054016 411.170013,355.956268 404.507416,356.060303 
	C393.328583,356.234772 392.648163,353.491333 394.043762,367.551483 
	C397.231415,399.665985 407.471649,429.512390 421.673553,458.215973 
	C422.960052,460.816101 424.382904,461.647034 427.526154,461.086914 
	C450.809265,456.938324 474.282837,454.320984 497.936737,453.828186 
	C502.704468,453.728882 503.793640,452.062469 503.769318,447.656586 
	C503.612091,419.167480 503.574341,390.676300 503.785736,362.187927 
	C503.822388,357.250671 502.148804,356.000305 497.473969,356.033203 
	C473.483765,356.202057 449.491516,356.081207 424.500000,356.061066 
M588.500000,335.736267 
	C602.152039,335.729645 615.805054,335.630798 629.455505,335.775818 
	C633.258850,335.816254 635.113525,334.672791 634.682861,330.646057 
	C634.311768,327.176208 634.074280,323.688202 633.897217,320.202148 
	C632.466919,292.038208 625.860840,265.039734 615.987549,238.712646 
	C614.379333,234.424286 612.385437,233.824280 608.241577,234.689087 
	C582.315369,240.099838 556.079773,243.191330 529.616333,244.131027 
	C525.427734,244.279755 524.281250,245.713043 524.301208,249.732452 
	C524.434387,276.536285 524.448364,303.341736 524.267273,330.145111 
	C524.237061,334.615204 525.786987,335.834290 530.062378,335.795715 
	C549.206909,335.623077 568.353882,335.730011 588.500000,335.736267 
M503.691589,290.500031 
	C503.687256,276.667114 503.644897,262.833984 503.709412,249.001389 
	C503.722900,246.104340 503.225861,244.342194 499.675049,244.252563 
	C472.340210,243.562668 445.232208,240.665558 418.436432,235.175598 
	C415.074127,234.486710 413.656250,235.450363 412.489105,238.458160 
	C408.083740,249.811127 404.406982,261.392487 401.462646,273.193115 
	C396.692291,292.312317 394.623383,311.815857 393.397217,331.443604 
	C393.115509,335.952576 395.732880,335.744568 398.727539,335.742279 
	C431.893158,335.716705 465.059174,335.635498 498.223846,335.809235 
	C502.796570,335.833160 503.841400,334.221588 503.767120,329.997406 
	C503.541595,317.168488 503.688812,304.332977 503.691589,290.500031 
M378.655548,399.625244 
	C375.631836,386.810425 373.938934,373.801575 373.114532,360.678223 
	C372.929474,357.731873 372.050293,356.043243 368.707306,356.071808 
	C357.383789,356.168671 346.058685,356.133453 334.734558,356.075684 
	C331.920563,356.061310 330.748932,357.259094 330.077209,360.047333 
	C324.909271,381.498749 312.271912,396.951752 292.155762,406.075012 
	C288.871246,407.564697 288.161255,409.165771 289.203308,412.575897 
	C297.411743,439.437164 309.829498,464.119415 326.725769,486.576630 
	C328.740417,489.254303 330.407867,489.503815 333.379517,488.208282 
	C345.441528,482.949677 357.826447,478.512634 370.453033,474.805634 
	C380.925232,471.731140 391.466522,468.891907 402.472870,465.809662 
	C392.255859,444.584351 383.927216,423.085266 378.655548,399.625244 
M700.125122,374.198090 
	C698.197205,369.591797 696.293518,364.978790 695.369629,360.033691 
	C694.881836,357.422852 693.562561,356.032990 690.624390,356.061432 
	C680.304382,356.161346 669.982117,356.121979 659.661804,356.023071 
	C656.507996,355.992859 655.259094,357.224976 655.168762,360.442474 
	C655.028992,365.422577 654.625732,370.413940 654.003174,375.358826 
	C650.164856,405.845398 640.824341,434.669128 627.558044,462.298584 
	C626.877869,463.715149 625.523804,465.045471 626.392883,467.135101 
	C627.208069,467.371338 628.137939,467.665588 629.080627,467.910248 
	C650.676025,473.515137 671.975464,480.069305 692.649292,488.480621 
	C696.757751,490.152161 698.920105,489.165863 701.361877,485.849548 
	C717.599243,463.795807 729.891663,439.796692 737.915039,413.584839 
	C739.030090,409.941772 738.392395,408.243988 734.804749,406.780182 
	C719.384338,400.488403 708.030334,389.684448 700.125122,374.198090 
M334.072845,335.688721 
	C345.570740,335.700714 357.071014,335.583466 368.565216,335.795868 
	C372.503845,335.868652 373.855072,334.513245 373.746185,330.608368 
	C373.462372,320.432220 374.814270,310.326202 376.099792,300.279755 
	C378.980774,277.764435 384.395050,255.817429 392.571075,234.609756 
	C393.899414,231.164154 393.246338,229.482010 389.572784,228.553528 
	C368.875000,223.322128 348.712280,216.465546 329.065704,208.118210 
	C326.651031,207.092300 325.002838,207.409866 323.486389,209.523163 
	C307.997559,231.107529 296.516205,254.624481 289.143250,280.162109 
	C288.314087,283.034088 289.176941,284.368652 291.748566,285.535858 
	C312.214203,294.825104 325.097717,310.417908 330.199493,332.337830 
	C330.620148,334.145264 331.123169,335.526245 334.072845,335.688721 
M674.741699,216.356110 
	C663.289124,220.443481 651.664795,223.984207 639.950928,227.233215 
	C633.726929,228.959534 633.750549,228.908707 635.860107,234.748779 
	C639.876343,245.867523 643.602539,257.078949 646.284241,268.608429 
	C650.967407,288.743134 654.315491,309.067841 654.383423,329.800964 
	C654.398743,334.485168 656.051514,336.038666 660.832886,335.844574 
	C670.482361,335.452820 680.160034,335.610718 689.822510,335.763641 
	C693.035522,335.814484 694.714722,334.708984 695.462952,331.555603 
	C700.719971,309.401611 714.005127,293.958099 734.866516,285.042664 
	C738.034058,283.688934 739.110413,282.283386 738.024902,278.659821 
	C730.641541,254.014053 719.428894,231.288086 704.708740,210.217468 
	C702.513611,207.075287 700.599121,206.272629 696.929993,207.870911 
	C689.915833,210.926315 682.652039,213.408585 674.741699,216.356110 
M725.292297,298.789825 
	C710.442383,309.985626 702.211975,324.896210 701.368774,343.429901 
	C699.781067,378.329987 729.443604,406.458984 763.885559,404.004852 
	C800.003296,401.431335 826.180054,364.583771 815.647522,329.965759 
	C803.788208,290.986847 759.774658,275.497986 725.292297,298.789825 
M573.646057,582.878662 
	C573.381897,581.745483 573.122986,580.611084 572.852661,579.479370 
	C565.358948,548.109619 533.513733,528.662720 502.251160,536.363953 
	C475.019287,543.072327 457.405853,567.126465 458.080322,595.879883 
	C458.782867,625.829468 487.015778,657.207397 526.428345,650.212158 
	C560.566528,644.153076 578.795471,611.890869 573.646057,582.878662 
M217.312592,378.179779 
	C234.842026,402.091278 263.184875,410.911133 288.228180,399.647125 
	C317.032959,386.691223 327.989716,362.213501 322.294739,332.641235 
	C316.364105,301.845215 285.315887,282.664215 254.668701,288.737976 
	C215.375168,296.525208 193.953857,341.818817 217.312592,378.179779 
M458.274933,97.180771 
	C458.755432,100.129333 458.978088,103.147865 459.756226,106.015678 
	C467.980743,136.328003 497.632141,154.870453 528.236206,148.442902 
	C560.304932,141.707733 578.051453,110.506500 573.922424,82.994850 
	C568.490540,46.802685 530.017822,23.789316 495.803986,36.886730 
	C473.597168,45.387730 455.864532,68.168610 458.274933,97.180771 
M426.663239,506.785370 
	C422.735535,500.598145 418.585266,494.537079 414.976379,488.169159 
	C413.239563,485.104462 411.471405,484.508514 408.196136,485.283295 
	C389.055542,489.811066 370.228699,495.344452 351.844116,502.343323 
	C349.129059,503.376953 346.161011,503.998871 343.768616,506.091370 
	C344.336243,506.909119 344.643341,507.507843 345.089874,507.972504 
	C374.380035,538.451904 409.425934,559.389709 449.954315,571.261475 
	C452.587097,572.032654 453.945435,571.107910 455.037781,568.755432 
	C456.789093,564.983826 458.462219,561.099609 460.802612,557.699524 
	C463.077881,554.393982 462.426788,552.313721 459.931274,549.519104 
	C448.046295,536.209412 437.136108,522.116882 426.663239,506.785370 
M577.997253,538.462341 
	C575.183472,541.752319 572.512512,545.180603 569.506714,548.284729 
	C567.426758,550.432739 567.559753,552.105835 569.320496,554.292786 
	C572.259277,557.942810 574.675781,562.003906 576.234558,566.392822 
	C577.554565,570.109802 579.376282,570.624146 582.968811,569.492432 
	C611.086975,560.634583 636.696289,547.108704 659.701050,528.682251 
	C667.991150,522.041992 676.042786,515.127625 683.252869,506.800720 
	C682.262512,506.176361 681.646362,505.632935 680.927490,505.357300 
	C660.705261,497.602356 640.089844,491.129211 618.985413,486.209808 
	C615.986450,485.510742 614.504517,486.472443 613.002136,488.994537 
	C602.757324,506.193390 591.133606,522.432556 577.997253,538.462341 
M391.023102,146.559647 
	C371.824402,158.609467 354.399078,172.731293 339.490387,189.856857 
	C341.181061,191.771378 343.037811,192.138885 344.708435,192.813309 
	C361.539093,199.607605 378.789520,205.090698 396.323120,209.786789 
	C400.945709,211.024887 403.051514,210.062714 405.186432,205.780106 
	C418.935120,178.200684 436.466919,153.190475 457.695648,130.855789 
	C460.856750,127.529961 459.609802,125.311523 458.027924,122.196716 
	C456.348572,118.889992 454.182587,119.451111 451.396698,120.222305 
	C430.254364,126.074959 410.388885,134.831863 391.023102,146.559647 
M667.844910,169.659470 
	C661.950989,164.498840 655.786743,159.683472 649.390076,155.161545 
	C628.140137,140.139435 605.105713,128.803864 580.146484,121.351746 
	C576.561707,120.281418 574.583679,121.243797 572.973999,124.447632 
	C571.507690,127.365944 569.271606,129.533112 572.609863,133.115494 
	C592.936401,154.928406 609.867737,179.168518 623.163330,205.880081 
	C624.817200,209.202744 626.591919,210.003021 630.210754,209.019730 
	C647.248230,204.390289 664.082458,199.167847 680.503906,192.673187 
	C682.738037,191.789597 685.400269,191.619949 687.301392,189.186737 
	C681.816650,181.983795 674.987854,176.162689 667.844910,169.659470 
M450.973969,220.389984 
	C466.826721,222.343536 482.704132,223.948502 498.704285,223.949280 
	C501.385895,223.949417 503.714874,223.937408 503.702576,220.193161 
	C503.636353,200.048492 503.655518,179.903488 503.683380,159.758652 
	C503.686218,157.692734 503.093658,156.139282 500.961578,155.581665 
	C491.362030,153.070938 482.597687,148.805298 474.309784,142.502548 
	C453.662231,164.267258 436.404785,187.994034 422.992950,215.395737 
	C432.414825,217.875870 441.249756,219.082092 450.973969,220.389984 
M554.157410,145.236008 
	C546.539795,150.530487 538.177368,154.173584 529.083435,155.889603 
	C525.341614,156.595673 524.278015,158.392944 524.303589,162.002640 
	C524.436768,180.811325 524.487793,199.622818 524.278687,218.430130 
	C524.228760,222.921753 525.766235,224.093048 530.078613,223.975754 
	C549.229553,223.454926 568.189758,221.235046 587.063171,218.134293 
	C592.852356,217.183182 598.723389,216.475677 604.574707,214.451324 
	C604.013550,212.951828 603.761047,211.988419 603.314331,211.125610 
	C591.148926,187.630020 575.897827,166.301514 558.059509,146.795959 
	C557.176697,145.830658 556.364746,144.661011 554.157410,145.236008 
M473.756775,534.727722 
	C476.171082,538.508362 478.867584,539.172119 482.798004,536.415894 
	C487.733582,532.954712 493.434235,530.858154 499.277069,529.416992 
	C502.596832,528.598145 503.799988,527.004456 503.758942,523.518250 
	C503.582428,508.522247 503.583313,493.521820 503.755005,478.525696 
	C503.797821,474.783936 502.698425,473.739227 498.891296,473.839539 
	C483.060211,474.256714 467.292419,475.457520 451.606873,477.490601 
	C446.032745,478.213074 440.203613,478.381805 434.546173,480.795349 
	C435.562256,482.677032 436.196930,484.025238 436.981598,485.279633 
	C447.784851,502.550537 460.007477,518.769348 473.756775,534.727722 
M592.752747,481.614899 
	C591.911194,480.281281 590.478760,480.414795 589.194641,480.185730 
	C570.988037,476.937378 552.646423,474.906555 534.164185,474.247711 
	C531.088928,474.138092 527.940369,473.494507 524.425659,474.507629 
	C524.425659,491.331238 524.428833,507.958710 524.422363,524.586182 
	C524.421326,527.206299 526.296509,527.990906 528.322083,528.349304 
	C535.622559,529.640991 542.432983,532.255493 548.886536,535.821533 
	C550.995972,536.987183 552.553467,536.729126 554.131042,534.911072 
	C568.454346,518.404846 581.803162,501.188263 592.752747,481.614899 
z"/>
<path fill="#000000" opacity="1.000000" stroke="none" 
	d="
M745.965820,331.060455 
	C740.795105,325.811920 738.899231,320.389740 742.726929,313.801636 
	C743.528748,312.421539 743.510681,310.585449 743.998108,308.998718 
	C746.301575,301.500488 752.148193,296.784698 759.187134,296.687347 
	C766.394104,296.587677 772.999878,301.317657 775.489746,308.439850 
	C776.634888,311.715302 777.470947,315.167694 778.114807,318.487915 
	C778.871826,322.391815 778.282715,326.520081 774.637939,329.794983 
	C771.564514,332.556671 769.725464,336.325500 770.137207,340.931976 
	C770.492065,344.901031 772.093262,347.540222 775.968506,348.664459 
	C776.288269,348.757233 776.612549,348.836456 776.928162,348.941559 
	C788.343445,352.742889 788.343872,352.743164 788.338867,365.087250 
	C788.336365,371.249420 788.228027,377.414001 788.369141,383.572845 
	C788.444336,386.849762 787.490906,388.405731 783.866760,388.375824 
	C767.713013,388.242554 751.557129,388.261292 735.402954,388.366425 
	C732.091248,388.387970 730.967346,386.949890 730.986755,383.882141 
	C731.044678,374.722717 731.077881,365.562164 730.990479,356.403320 
	C730.961914,353.408844 732.211548,351.761139 735.084412,351.098328 
	C737.189575,350.612640 739.254639,349.948792 741.329529,349.337097 
	C749.849182,346.825348 752.044922,341.063171 747.359924,333.563965 
	C746.919800,332.859436 746.554810,332.107941 745.965820,331.060455 
z"/>
<path fill="#000000" opacity="1.000000" stroke="none" 
	d="
M499.072052,561.940186 
	C499.722778,559.841980 500.101715,558.050171 500.618439,556.298889 
	C502.885712,548.615112 508.473175,543.884644 515.498230,543.644897 
	C522.935120,543.391113 529.950928,547.980225 532.077026,555.551208 
	C533.548157,560.789917 536.130981,565.888184 534.481323,571.897156 
	C533.408203,575.806091 530.084717,577.556824 528.330200,580.740662 
	C524.523193,587.648865 526.416809,593.572510 533.794922,595.963318 
	C545.253174,599.676392 545.247498,599.676392 545.232117,611.640259 
	C545.224182,617.799622 545.096436,623.963806 545.299500,630.116638 
	C545.424561,633.906616 544.189331,635.473511 540.175964,635.431152 
	C524.362915,635.264160 508.546387,635.283569 492.732605,635.413086 
	C489.074585,635.443115 487.682404,634.143860 487.739655,630.483337 
	C487.880219,621.496277 487.859955,612.503662 487.708740,603.516602 
	C487.658173,600.512390 488.738464,598.869080 491.652466,598.172424 
	C494.236328,597.554626 496.762848,596.691528 499.304474,595.903748 
	C506.318176,593.729675 508.333038,587.955078 504.726318,581.435303 
	C502.160858,576.797791 497.034271,573.542480 497.365204,567.250488 
	C497.466888,565.317566 497.480560,563.673706 499.072052,561.940186 
z"/>
<path fill="#000000" opacity="1.000000" stroke="none" 
	d="
M281.871674,308.482483 
	C283.091522,311.804810 283.795868,314.923828 284.526428,317.930023 
	C285.496063,321.919922 284.615753,326.088654 281.462708,329.412079 
	C278.591431,332.438538 276.019257,335.638580 276.280457,340.288605 
	C276.522766,344.601837 278.204193,347.622192 282.571289,348.768768 
	C282.892792,348.853149 283.203186,348.979431 283.519897,349.082672 
	C294.967072,352.813171 294.980499,352.813080 294.999420,364.729523 
	C295.009460,371.059357 294.912750,377.389648 294.963684,383.718964 
	C294.990356,387.034058 293.694489,388.434357 290.195099,388.403259 
	C274.370544,388.262482 258.543213,388.227997 242.719131,388.384033 
	C238.717407,388.423492 237.522400,386.896973 237.602798,383.088898 
	C237.789124,374.263855 237.775787,365.429413 237.585922,356.604340 
	C237.515656,353.338226 238.737976,351.623596 241.835495,350.984955 
	C243.136032,350.716797 244.376221,350.101013 245.682053,349.921844 
	C258.706177,348.134857 258.085327,337.649933 251.248505,329.730316 
	C247.011307,324.822083 245.377472,319.998169 249.029572,314.152191 
	C249.448090,313.482269 249.503723,312.578461 249.695984,311.775482 
	C251.812027,302.937042 256.730133,297.659302 263.680237,296.778625 
	C271.344635,295.807495 277.628265,299.758911 281.871674,308.482483 
z"/>
<path fill="#000000" opacity="1.000000" stroke="none" 
	d="
M545.235107,118.994408 
	C545.236389,122.990944 545.161865,126.490616 545.255798,129.985764 
	C545.336243,132.981171 543.924622,134.173508 541.029419,134.169342 
	C524.706787,134.145935 508.384003,134.144592 492.061584,134.207916 
	C488.816589,134.220505 487.689270,132.732422 487.721069,129.614166 
	C487.816101,120.287903 487.807404,110.959404 487.711487,101.633087 
	C487.682465,98.808212 488.881256,97.336441 491.556580,96.702805 
	C493.982086,96.128326 496.364288,95.363876 498.752533,94.640221 
	C506.324890,92.345726 508.332184,86.436111 504.445068,79.592834 
	C501.913116,75.135208 496.308319,71.792107 497.614990,65.831406 
	C499.342621,57.950413 500.196442,49.345432 508.105804,44.464916 
	C515.028992,40.192871 524.240967,41.778652 529.054504,48.600666 
	C533.619324,55.070229 535.716797,62.419083 534.338989,70.551048 
	C533.663208,74.539612 529.982483,76.192085 528.279236,79.450829 
	C524.577026,86.534111 526.492249,92.336418 534.017944,94.673126 
	C545.267029,98.165932 545.265869,98.165916 545.237122,110.001076 
	C545.230225,112.832558 545.233643,115.664078 545.235107,118.994408 
z"/>
</svg>