<svg version="1.1" id="Layer_1" xmlns="http://www.w3.org/2000/svg" xmlns:xlink="http://www.w3.org/1999/xlink" x="0px" y="0px"
	 width="100%" viewBox="0 0 1024 1024" enable-background="new 0 0 1024 1024" xml:space="preserve">
<path fill="#000000" opacity="1.000000" stroke="none" 
	d="
M142.631683,525.343994 
	C140.886032,507.703827 142.301132,490.570251 143.880264,473.515442 
	C146.309006,447.284668 151.147385,421.419708 159.580811,396.420654 
	C194.946426,291.586975 262.254761,214.770294 362.394257,167.411301 
	C398.164764,150.494339 436.043304,140.182281 475.567047,136.610184 
	C583.241455,126.878731 678.634521,156.762131 760.700012,227.057434 
	C827.613403,284.373779 869.584778,357.022980 887.920532,443.109100 
	C895.727356,479.762238 897.591125,516.887024 894.561218,554.353455 
	C890.011658,610.610535 873.573608,662.930298 844.917480,711.503418 
	C825.786011,743.932068 801.892883,772.414795 773.902771,797.485840 
	C733.591492,833.593079 687.519714,859.623108 635.867981,875.759888 
	C607.292664,884.687256 578.040100,889.666016 548.145081,891.436340 
	C497.251862,894.450134 447.898132,887.029114 399.873383,870.323486 
	C352.247162,853.756470 309.617462,828.595459 271.683197,795.368774 
	C234.747025,763.016235 205.193695,724.964417 183.000946,681.202332 
	C164.162704,644.055115 151.862244,604.791260 145.954941,563.587219 
	C144.162643,551.085876 142.519470,538.511353 142.631683,525.343994 
M551.600403,294.552948 
	C549.096741,300.428162 543.391602,301.489136 538.235107,303.091064 
	C535.649780,303.894196 533.420349,302.230011 531.942810,299.966583 
	C531.032898,298.572601 531.660278,284.802338 532.927429,283.796295 
	C537.644531,280.051422 541.361816,273.488495 549.402405,278.287872 
	C548.744507,275.092682 548.098572,272.705841 547.786804,270.276123 
	C547.231384,265.947418 549.204468,262.912689 553.004578,260.939423 
	C559.405029,257.615875 565.107422,260.306122 566.999329,269.084290 
	C568.782532,277.358337 575.442688,281.592773 580.190796,287.198242 
	C583.008362,290.524597 587.048828,292.535553 586.350098,297.770569 
	C588.768555,297.404266 589.619141,295.838959 590.690186,294.651276 
	C593.671692,291.345154 597.120911,288.763031 601.549438,287.941925 
	C605.070007,287.289154 606.250671,285.330048 605.918823,281.951630 
	C605.542175,278.117889 605.299988,274.259460 608.800171,270.882019 
	C613.246460,269.773315 615.842285,272.336212 618.148193,275.698883 
	C617.137146,272.372406 614.853760,270.172760 612.624268,267.973541 
	C610.580505,268.484528 609.261353,269.703796 607.283142,271.243408 
	C598.190002,274.350006 594.386108,272.458252 591.536743,263.357239 
	C590.181335,259.027679 589.411194,254.674652 590.320496,250.081253 
	C591.015442,246.570618 592.570801,243.710846 595.733032,242.120407 
	C604.000610,237.962296 609.461304,231.216965 613.740906,223.287292 
	C617.298767,216.694946 622.585571,212.090393 629.700500,209.677383 
	C638.377380,206.734650 647.336182,205.523392 656.280823,207.552261 
	C668.773621,210.385941 681.308472,213.124313 693.534241,217.060532 
	C698.258301,218.581497 702.707642,220.220886 703.556213,226.013992 
	C708.201477,223.675415 705.712097,221.528168 704.338013,219.344193 
	C703.551086,218.093506 702.480225,216.625259 703.821106,215.269501 
	C705.340088,213.733658 707.030457,214.728027 708.277466,215.815414 
	C709.826904,217.166489 711.108337,218.824921 712.536194,220.384048 
	C713.096313,219.371552 713.396667,218.307068 714.091858,217.680832 
	C715.527405,216.387604 717.173401,215.327988 719.329224,213.730347 
	C662.122803,173.648087 598.887146,152.501495 529.706909,149.453918 
	C453.388306,146.091873 383.334351,165.937836 318.319031,208.613037 
	C331.651825,209.082214 343.008545,211.772079 353.317474,218.107330 
	C355.020538,219.153931 357.550446,219.902267 357.656647,221.920898 
	C357.878448,226.136139 360.820801,227.662827 363.624969,229.741501 
	C369.389862,234.014893 368.510132,241.302216 362.033936,244.634430 
	C359.314606,246.033630 356.282471,246.065735 352.973328,246.618927 
	C354.221313,251.907166 353.147400,256.945892 347.664825,257.886108 
	C340.858643,259.053375 333.543488,259.443085 327.071411,256.104980 
	C322.580780,253.788879 318.398438,251.410873 313.061096,251.880264 
	C310.847473,252.074951 308.854797,250.625641 308.112396,248.320755 
	C307.401794,246.114517 308.867676,244.537979 310.161713,242.994949 
	C311.748535,241.102859 314.084656,240.581085 316.213715,239.656937 
	C320.102753,237.968842 324.177826,236.483749 326.253448,232.342270 
	C321.834869,228.265778 319.569092,228.193405 315.209381,231.737289 
	C309.420013,236.443329 308.012329,236.405396 302.573059,231.478714 
	C302.253265,231.189056 301.701782,231.155243 301.059326,230.933853 
	C299.528351,233.419678 301.211273,235.005035 302.384918,236.712570 
	C305.290405,240.939743 305.419464,245.872070 302.578949,249.736191 
	C299.561493,253.840988 295.512024,253.467102 291.305054,252.074951 
	C290.040466,251.656448 288.689178,251.375900 287.549591,250.729141 
	C285.128754,249.355164 282.925110,249.569992 280.474243,250.768539 
	C271.236084,255.286209 263.469147,261.850861 255.967239,268.665894 
	C251.996857,272.272705 253.219208,276.685089 258.135773,279.020782 
	C259.187439,279.520386 260.270905,279.964661 261.368042,280.354919 
	C269.415070,283.217255 276.622650,286.692535 273.893707,297.727753 
	C274.607697,296.746277 274.857758,295.989380 275.095703,295.228638 
	C276.818268,289.720551 278.629852,284.413696 285.409393,283.016876 
	C287.385742,282.609711 288.693604,280.674683 288.822235,278.481995 
	C289.219177,271.716339 293.234741,266.377747 295.747284,260.440857 
	C297.353790,256.644714 300.299805,254.686661 304.111053,254.131744 
	C309.066406,253.410233 314.107239,253.298019 319.046997,254.213943 
	C325.692657,255.446152 327.936646,259.034027 326.638214,265.681427 
	C326.430878,266.742798 325.723450,267.923553 327.166534,268.875122 
	C330.023895,268.314667 331.977020,266.119446 334.304321,264.600525 
	C342.801422,259.054749 348.522247,261.308533 349.503052,271.299500 
	C350.116699,277.550354 352.868134,281.299194 358.307312,283.984619 
	C363.725311,286.659576 365.206116,290.742981 364.691498,296.794067 
	C364.305145,301.337036 361.702911,305.121460 360.764771,309.343201 
	C367.766022,313.238953 369.690491,317.373199 368.247406,325.102325 
	C367.519714,328.999908 365.020172,331.359680 361.186035,330.338623 
	C355.019196,328.696381 348.705933,328.474823 342.492523,327.430481 
	C337.721375,326.628571 336.329529,323.703400 338.715302,319.501678 
	C340.397278,316.539429 342.625793,313.887512 345.407867,309.975433 
	C337.856171,315.514221 330.223267,315.516663 321.387177,315.204437 
	C326.579071,320.782684 321.383545,323.958984 319.858582,327.859894 
	C323.019348,329.697083 325.223663,327.818817 327.508240,326.646576 
	C329.539154,325.604523 331.639130,324.903473 333.621490,326.373322 
	C335.686981,327.904785 336.113617,330.308746 335.746582,332.688904 
	C334.941956,337.906372 331.865906,341.317474 327.035339,343.394196 
	C321.227814,345.890930 315.023865,347.390503 309.501923,350.615021 
	C302.734070,354.567017 301.747070,354.392029 295.818512,348.873932 
	C291.331024,351.702698 285.765656,353.440979 283.301422,358.814728 
	C280.993713,363.847198 277.247559,366.989929 272.426331,369.287445 
	C266.413300,372.152924 262.133148,376.601685 260.611603,383.283447 
	C258.953705,390.564087 254.794724,395.844727 248.233749,399.372101 
	C246.189865,400.470978 244.426895,402.085144 242.403732,403.231049 
	C235.900482,406.914612 233.364319,412.684448 233.344940,419.868225 
	C233.329666,425.534271 233.449646,431.206726 233.220596,436.864655 
	C232.926239,444.136353 229.721451,448.663513 225.063751,448.926788 
	C220.718079,449.172455 217.249130,445.193512 215.853439,438.116791 
	C215.114044,434.367645 214.603928,430.572571 214.019943,426.793640 
	C213.467148,423.216461 211.237213,422.098297 207.922501,422.622498 
	C205.448074,423.013794 203.077164,423.532349 201.193710,425.511871 
	C198.393753,428.454712 194.782700,429.093628 191.043472,427.944305 
	C185.504791,426.241943 181.219055,428.251068 177.555237,432.109497 
	C170.567856,439.468048 169.185745,448.924255 168.283249,458.416168 
	C167.926392,462.169220 167.604553,466.100647 169.309677,469.741547 
	C171.073593,473.507996 173.586227,473.737183 175.921570,470.310577 
	C177.044846,468.662476 177.918304,466.839813 179.084625,465.226105 
	C182.865601,459.995056 188.108322,458.077942 194.395935,458.809937 
	C199.947739,459.456238 201.921890,462.614105 199.991837,467.817352 
	C198.891891,470.782745 197.469940,473.631622 196.428970,476.615265 
	C194.919556,480.941650 192.702301,485.101715 192.676697,489.687195 
	C194.174789,491.066895 195.745514,490.650085 197.197418,490.701874 
	C206.282639,491.025909 210.225311,495.651215 208.960403,504.563141 
	C208.469299,508.023224 207.862701,511.470825 207.499207,514.944031 
	C207.026672,519.459167 207.009811,523.945740 209.568710,528.010254 
	C210.611542,529.666809 211.670731,530.963623 213.981445,530.004272 
	C218.936844,527.946960 223.893082,527.020264 228.131790,531.418152 
	C234.720810,521.614441 235.454605,520.651245 240.160156,518.216064 
	C243.705276,516.381409 247.376114,514.773193 251.057327,513.221558 
	C258.141602,510.235565 259.027832,510.748840 259.962341,518.422058 
	C263.365967,517.333191 266.304718,518.893127 269.442413,519.964722 
	C275.607941,522.070312 281.958405,523.546509 288.552490,522.270020 
	C293.416046,521.328491 296.972992,523.115540 299.697815,527.071533 
	C301.036072,529.014587 301.887207,531.405945 304.461243,533.051086 
	C304.461243,530.111328 304.590790,527.799561 304.441498,525.505981 
	C302.622375,497.559418 302.021881,469.599731 303.867554,441.636963 
	C304.204773,436.528290 304.980896,431.405029 307.026245,426.554169 
	C311.725677,415.408661 321.269714,410.750000 331.988922,407.688080 
	C349.483185,402.690826 367.368500,399.698639 385.452087,398.030762 
	C402.705017,396.439484 412.600952,402.393799 420.060547,418.214142 
	C420.405090,418.944946 420.860016,419.925079 420.638031,420.575653 
	C418.005707,428.289551 419.942505,436.090881 420.114044,443.842407 
	C420.810577,475.318146 421.418915,506.797577 422.426727,538.263855 
	C422.884918,552.569885 424.240051,566.846191 424.390350,581.174377 
	C424.428467,584.808350 425.648773,586.407776 429.882721,585.883667 
	C445.580688,583.940125 461.172821,581.373169 476.734650,578.602783 
	C492.563660,575.784790 504.805664,583.048096 509.495789,598.331238 
	C514.539062,614.765015 515.496826,631.691284 515.074280,648.720337 
	C514.972290,652.831116 514.207886,656.977478 512.703308,660.929626 
	C507.579437,674.388794 496.835388,680.433228 483.579102,683.257080 
	C466.631134,686.867310 449.420471,688.788269 432.287079,691.192810 
	C429.726471,691.552185 428.389832,692.348694 428.219696,695.104553 
	C427.728210,703.067017 424.402130,710.208679 421.520660,717.484192 
	C419.657898,722.187439 416.493073,725.118225 411.516541,726.327026 
	C405.813995,727.712280 400.487823,730.038940 395.664154,733.472107 
	C392.980255,735.382324 391.528046,737.763916 392.072296,741.117981 
	C393.114655,747.541382 391.367920,753.261902 387.978577,758.688904 
	C385.775482,762.216614 383.915558,765.957825 381.879364,769.590759 
	C378.539062,775.550293 376.470123,782.791687 367.629669,782.906067 
	C372.365417,793.262451 370.082397,798.244995 359.679718,801.488831 
	C358.567413,801.835754 357.460846,802.302795 356.319153,802.435974 
	C351.180847,803.035339 348.074005,804.784302 351.023926,810.649353 
	C351.509125,811.614014 351.446716,812.961792 351.333527,814.102356 
	C350.570374,821.792603 356.642944,826.913269 359.575684,832.830811 
	C362.697021,839.128906 370.381714,843.010254 377.680237,846.122009 
	C395.666718,853.790649 414.109741,859.910217 433.058228,864.573792 
	C439.504883,866.160461 445.987305,869.439819 452.535461,868.421082 
	C467.626984,866.073120 482.451691,868.725952 497.331268,869.679932 
	C512.783203,870.670532 528.169617,872.931580 543.697693,871.966736 
	C552.162231,871.440735 560.737793,870.840271 568.468750,866.858765 
	C572.303101,864.883911 576.174988,863.797607 580.440552,863.991699 
	C589.981445,864.425842 598.936462,862.342590 607.396118,857.912598 
	C611.393799,855.819275 615.734924,855.338257 620.034485,856.628357 
	C627.631226,858.907654 635.262390,858.114502 642.713867,856.603210 
	C652.860168,854.545410 662.455933,850.549072 671.906067,846.376160 
	C721.067322,824.667969 762.593628,792.663147 797.822998,752.325256 
	C804.141907,745.090027 810.822388,738.007568 815.392822,728.594727 
	C817.345703,726.644226 818.866333,724.391907 820.619080,721.568604 
	C821.531372,720.394714 822.535950,719.280640 823.342041,718.037781 
	C833.235840,702.782410 842.205688,687.002075 849.708313,670.432434 
	C867.831787,630.406433 878.192261,588.401978 880.560669,544.559570 
	C881.782837,521.935486 881.511780,499.260284 878.663452,476.711304 
	C877.504700,467.538177 876.591614,458.306091 873.884827,448.570526 
	C871.041443,452.217590 868.081787,454.843964 868.236816,459.032349 
	C868.419250,463.965881 866.072144,467.639008 862.849915,470.950256 
	C852.674438,481.406799 841.012512,489.966675 828.556213,497.456909 
	C822.501038,501.097961 816.296814,504.555328 808.744202,504.110046 
	C811.735291,512.610229 812.441895,513.010010 820.289490,510.314758 
	C826.116882,508.313354 831.876282,506.114197 837.701233,504.105408 
	C846.177002,501.182434 849.771790,503.855804 849.344910,512.735168 
	C849.265503,514.385681 848.938171,516.032471 848.627563,517.662354 
	C846.524048,528.700073 841.935059,538.923157 838.087463,549.379089 
	C834.135803,560.117554 828.564087,569.754700 819.847717,577.599854 
	C811.580444,585.040710 805.853027,594.512268 801.486938,604.719727 
	C797.924133,613.049316 795.622437,621.460876 797.058533,630.871216 
	C798.525146,640.481323 799.815979,650.085510 798.465149,660.087524 
	C796.693726,673.204529 793.739807,684.952515 781.161377,691.933960 
	C779.300903,692.966614 777.862610,694.733276 776.130188,696.028137 
	C769.900879,700.684204 766.167175,706.161011 767.227234,714.641907 
	C768.169800,722.181641 766.068420,729.659180 759.976379,734.524597 
	C754.399597,738.978577 751.076904,744.561279 747.751221,750.575073 
	C740.021240,764.553162 730.181519,776.753662 714.481628,782.209106 
	C705.693909,785.262634 696.709351,787.792114 687.900513,790.854004 
	C682.071228,792.880188 677.933777,790.905090 674.947998,785.514648 
	C673.196167,782.352112 672.625671,778.979492 672.741028,775.402283 
	C672.911255,770.124268 671.774353,765.223938 668.808899,760.701782 
	C665.557678,755.743958 663.964966,750.207703 663.568665,744.232727 
	C662.824524,733.011169 660.555359,722.167297 654.943359,712.210022 
	C653.027832,708.811462 652.302368,705.004761 652.678955,701.098145 
	C652.994019,697.829956 651.902771,696.332153 648.399841,695.960815 
	C635.167358,694.557800 621.944214,693.023193 608.757446,691.243042 
	C593.263550,689.151367 577.707214,687.228760 562.703430,682.580811 
	C546.615173,677.596924 537.718811,665.539795 537.689453,648.724182 
	C537.646362,624.072205 538.645691,599.441650 539.530457,574.810486 
	C539.610535,572.581848 539.613770,570.362732 537.757751,568.821655 
	C524.947144,558.184814 517.205261,543.080566 505.023193,531.848022 
	C499.336121,526.604187 497.100891,519.680725 498.391998,511.830841 
	C500.452301,499.303802 502.080139,486.890839 497.096710,474.468994 
	C495.461670,470.393433 496.206329,465.605682 498.183136,461.306915 
	C501.244171,454.650421 504.464630,448.042877 507.060211,441.203156 
	C509.982086,433.503571 514.375427,427.003784 520.760925,421.893555 
	C524.418274,418.966705 526.829651,415.385284 528.100037,410.885162 
	C529.852051,404.678894 532.925049,399.225464 537.744019,394.811646 
	C540.197327,392.564606 542.672302,390.300079 544.817871,387.772217 
	C546.299072,386.027069 549.216675,384.514435 547.592773,381.509125 
	C546.200134,378.931854 543.735718,378.065033 540.788818,378.327240 
	C538.391724,378.540558 535.477844,378.368164 534.862854,375.755829 
	C533.562805,370.233704 529.719788,365.128113 531.804443,358.969147 
	C533.423706,354.185028 533.756592,349.233856 533.840454,344.202087 
	C533.962280,336.886017 536.563538,334.338379 543.846741,333.974518 
	C545.660889,333.883881 547.498474,334.149780 549.319031,334.318573 
	C555.893433,334.927917 562.465149,335.565674 569.013611,336.190369 
	C570.069519,327.843658 568.540039,325.689240 559.512939,322.099976 
	C556.636414,320.956268 553.643127,319.551392 554.189880,315.842285 
	C554.681885,312.503906 557.289368,311.026947 560.579224,310.472656 
	C562.571777,310.136963 564.830688,310.512085 567.477905,308.555969 
	C562.966614,307.973877 559.804626,309.844177 556.442444,310.156311 
	C552.032654,310.565735 549.292419,308.455750 550.683960,305.210541 
	C552.296631,301.449707 551.435303,297.703156 552.451965,293.520630 
	C553.148010,292.387604 553.669922,291.086273 554.572144,290.152435 
	C557.517883,287.103241 556.532837,285.025024 552.577332,282.923431 
	C553.897888,287.047607 552.771790,290.521210 551.600403,294.552948 
M804.481628,589.044006 
	C808.799133,582.475830 813.683655,576.392395 819.482178,571.045654 
	C822.301453,568.446106 824.937622,565.620239 826.736938,562.184448 
	C834.960144,546.481873 841.269775,530.080872 844.458069,512.584229 
	C845.285706,508.042389 844.061462,507.028839 839.680176,508.553070 
	C832.289490,511.124268 824.993347,513.971802 817.576355,516.461243 
	C812.249023,518.249268 809.559875,516.995117 806.856140,512.125427 
	C805.332214,509.380798 804.471802,506.248108 801.886658,504.132141 
	C795.124817,498.597626 789.438721,491.912994 784.554932,484.849854 
	C777.862061,475.170441 768.874573,466.469910 768.316406,453.483826 
	C768.224487,451.345123 767.040833,449.402496 765.057312,448.102753 
	C762.617920,446.504333 761.135986,444.053070 759.716980,441.590363 
	C754.976074,433.362457 750.251770,425.124939 745.522766,416.890106 
	C745.108032,416.167847 744.636475,415.468079 744.311035,414.706696 
	C743.435364,412.657898 742.672180,410.491089 744.790405,408.778564 
	C747.013428,406.981201 749.141968,407.706940 751.049500,409.498993 
	C751.535095,409.955139 751.988770,410.445526 752.476746,410.898987 
	C762.414246,420.132660 768.064087,432.899475 778.117432,442.046173 
	C778.696716,442.573273 779.203003,443.461151 779.273560,444.224548 
	C780.191101,454.151398 786.129822,461.060089 793.038940,467.411682 
	C793.400513,467.743988 793.636719,468.210602 793.942810,468.605713 
	C799.820129,476.192871 803.604248,484.908081 807.502991,493.575409 
	C810.108948,499.369049 811.993164,500.221924 817.572632,497.516663 
	C833.437256,489.824524 847.681702,479.776611 860.177124,467.308350 
	C862.206970,465.282928 863.880127,462.986481 863.840881,459.897705 
	C863.796997,456.444977 865.045837,453.450745 866.748474,450.489685 
	C869.839172,445.114502 869.152954,441.764069 864.225525,437.910553 
	C860.949341,435.348419 857.058594,433.454285 854.176758,430.536377 
	C850.785278,427.102570 848.312866,427.099121 844.407471,429.863617 
	C837.876831,434.486420 832.860291,433.104950 828.586365,426.281128 
	C826.789734,423.412659 824.436035,421.088135 822.084412,418.728241 
	C818.322815,414.953278 814.373779,411.335999 811.591248,406.709869 
	C810.482788,404.867035 808.996033,402.974731 810.518738,400.747345 
	C811.955933,398.644989 814.276611,397.979462 816.668701,398.023041 
	C819.598328,398.076416 822.215515,399.200470 824.263977,401.339355 
	C825.989929,403.141571 827.474487,405.181274 829.250793,406.927826 
	C835.171753,412.749603 841.286499,418.187195 850.648438,415.602753 
	C853.097168,414.926758 854.782959,416.120270 856.186584,418.016510 
	C858.897827,421.679352 862.497253,422.523010 866.775696,421.369629 
	C867.383179,419.867249 866.903381,418.561249 866.523132,417.342651 
	C863.994202,409.237122 861.737854,401.024475 858.756348,393.085724 
	C836.864624,334.795502 803.060486,284.531219 756.840698,242.718506 
	C748.311829,235.002838 739.508057,227.588394 730.090637,220.973206 
	C724.632141,217.138931 719.816711,218.930191 718.329895,225.091339 
	C717.756042,227.469315 716.082642,228.878296 714.102478,228.500443 
	C709.766052,227.672928 707.934448,230.431625 705.567444,233.059357 
	C703.315063,235.559784 702.034180,239.511780 697.893494,239.675537 
	C692.401855,239.892700 687.324585,238.536133 683.138489,234.719299 
	C681.887085,233.578293 680.592529,232.303360 681.034180,230.463974 
	C681.512268,228.473190 683.465942,228.256958 685.066223,228.124405 
	C688.048462,227.877380 691.057312,227.969238 694.052368,227.850662 
	C695.565918,227.790710 697.241638,227.672867 697.541260,225.749130 
	C697.828369,223.905960 696.359802,223.107574 694.982361,222.492905 
	C693.618896,221.884445 692.189453,221.378174 690.742493,221.009613 
	C679.455627,218.134583 668.274475,214.644867 656.835205,212.615601 
	C640.258972,209.675049 623.341736,211.872375 614.442932,231.148911 
	C612.038147,236.358124 607.921265,240.308304 602.899231,243.304443 
	C594.893066,248.080948 592.887024,254.603821 596.464478,263.418457 
	C598.331055,268.017731 600.985168,269.319794 604.867065,266.188446 
	C613.686035,259.074524 616.048584,263.382874 621.221130,270.010834 
	C622.140137,271.188416 622.827942,272.543671 623.702759,273.759155 
	C624.821167,275.313080 625.383301,277.933807 627.836609,277.508728 
	C630.637573,277.023346 634.071045,275.627533 634.481445,272.887787 
	C635.459473,266.358856 639.418884,259.591736 633.820740,253.108292 
	C630.802124,249.612335 631.340332,246.119400 635.017944,243.146576 
	C637.238159,241.351837 639.253052,239.335999 639.739502,236.317429 
	C640.300476,232.836548 642.425659,230.991745 645.843140,230.842606 
	C648.921082,230.708298 652.021545,231.184219 653.674438,234.192062 
	C655.360107,237.259460 653.278442,239.557236 651.497131,241.794235 
	C651.082275,242.315262 650.658447,242.835312 650.187805,243.304718 
	C646.856567,246.626709 649.310059,249.831512 650.472961,252.976120 
	C651.524109,255.818771 653.795715,257.088135 656.806152,256.737579 
	C660.934143,256.256897 665.048279,255.657166 669.167969,255.105728 
	C672.168823,254.704071 675.170715,254.519714 678.019470,255.793823 
	C679.991089,256.675598 681.369507,258.247406 681.107849,260.458527 
	C680.835754,262.758118 678.741394,262.950500 676.903137,263.192841 
	C672.782471,263.736115 668.624634,264.073212 664.544373,264.830353 
	C657.268494,266.180450 657.268921,266.307098 657.258240,273.497253 
	C657.246704,281.258850 654.811157,284.118225 647.299500,285.148285 
	C641.532593,285.939056 635.701294,286.405640 630.010010,287.563934 
	C623.547424,288.879211 619.042236,286.450470 615.383606,281.437286 
	C614.186218,279.796600 613.541992,277.562897 611.282104,276.804626 
	C609.687988,278.773865 611.090515,280.514771 611.171082,282.240784 
	C611.345398,285.974304 610.783203,290.155182 606.989502,291.003510 
	C597.498108,293.125854 592.642456,300.812408 586.259399,306.698212 
	C584.284790,308.518982 582.338623,310.996002 579.723755,311.035065 
	C573.476196,311.128387 568.724304,316.046936 562.490295,315.877747 
	C561.908081,315.861969 560.723389,315.789246 560.747375,317.051483 
	C572.961731,322.745331 574.885254,325.744659 574.348206,337.293701 
	C574.174133,341.037140 572.717957,342.070312 568.998840,341.732239 
	C560.716797,340.979370 552.577332,338.956451 544.192444,339.102875 
	C540.984497,339.158905 539.402466,340.235229 538.971741,343.637787 
	C538.367004,348.414490 539.011963,353.441742 537.071045,357.941376 
	C534.931274,362.902100 537.702209,367.104279 538.729553,371.482544 
	C539.455688,374.577148 543.216309,372.461578 545.295532,373.694550 
	C545.573120,373.859192 546.042603,373.789246 546.232239,373.999908 
	C550.956421,379.248932 556.327942,377.466064 561.755188,375.513245 
	C562.840210,375.122864 564.023376,374.977264 565.173767,374.800903 
	C574.247681,373.410248 575.582336,372.280792 577.638611,363.201172 
	C578.815796,358.003479 581.274658,353.981689 586.307312,351.756897 
	C588.671509,350.711792 590.342773,349.214874 590.793335,346.288910 
	C591.682312,340.515717 594.160828,338.659332 599.704468,340.115723 
	C605.057800,341.522125 609.289307,340.572845 613.546265,337.017914 
	C618.610779,332.788696 620.965271,333.183350 625.164307,338.549377 
	C628.945068,343.380859 633.248047,347.452545 638.957336,349.756409 
	C645.473145,352.385742 651.206238,355.744965 653.336914,363.282196 
	C654.510254,359.507416 651.883850,355.048218 657.241028,352.616455 
	C654.247742,351.117615 652.084595,349.867493 649.796204,348.919922 
	C642.961792,346.090088 637.874817,341.073578 633.078735,335.710602 
	C631.502258,333.947784 630.015625,331.815308 632.132751,329.521881 
	C634.085388,327.406647 636.538391,327.335815 638.963074,328.789154 
	C640.096313,329.468384 641.243103,330.224060 642.146667,331.171234 
	C647.886902,337.188751 654.819702,341.412872 662.355713,344.720978 
	C666.024597,346.331573 668.539673,348.853058 670.412231,352.475555 
	C673.710693,358.856476 678.404358,364.207092 684.002136,368.937378 
	C685.883362,363.049561 685.883362,363.049561 684.079712,357.192017 
	C682.755188,352.890717 684.051392,350.480713 688.348389,349.255646 
	C693.988831,347.647583 697.447998,349.233429 700.067627,354.717804 
	C702.942200,360.735901 706.624573,366.855835 713.450684,367.695160 
	C721.732056,368.713379 730.316650,370.074554 738.690002,367.002228 
	C742.353210,365.658142 744.996094,367.509979 745.720520,371.246918 
	C746.795349,376.790955 747.904114,382.396332 746.876770,388.085571 
	C745.527893,395.555145 741.968933,398.303223 734.370728,397.703033 
	C732.808044,397.579590 731.410156,397.919647 729.955261,398.234222 
	C721.187805,400.129669 712.501404,400.018341 703.777771,397.701111 
	C697.991882,396.164215 692.424011,393.896301 686.465027,392.910553 
	C682.457214,392.247498 680.609619,393.263702 680.258484,397.580475 
	C679.762085,403.683716 676.185730,405.954559 670.258728,404.394379 
	C668.338135,403.888824 666.346069,403.330261 664.652771,402.340576 
	C655.976746,397.269623 646.720215,393.697174 637.146057,390.710449 
	C630.966064,388.782593 629.575500,386.075836 629.750366,379.399078 
	C629.921082,372.879272 628.811218,372.116913 622.239746,372.534058 
	C604.775635,373.642639 588.146545,378.143250 571.853821,384.239014 
	C569.544556,385.102997 566.617981,386.430115 564.643616,385.711548 
	C555.930237,382.540314 551.234741,387.508972 546.562622,393.405640 
	C544.611389,395.868256 542.062866,397.851074 539.848999,400.113861 
	C536.775269,403.255585 534.367126,406.812988 533.302856,411.157623 
	C531.727112,417.590210 528.023071,422.589722 522.830933,426.550385 
	C518.744202,429.667816 515.921814,433.741516 513.835144,438.351044 
	C510.264221,446.239380 506.770294,454.162598 503.247864,462.072906 
	C501.281769,466.488220 500.637360,470.992218 502.324097,475.661469 
	C506.179810,486.334900 506.077606,497.084686 503.678406,508.106232 
	C502.169037,515.040039 501.973297,522.328064 507.782410,527.764893 
	C515.384155,534.879517 521.434937,543.205017 527.683838,551.429688 
	C530.730103,555.439087 534.038452,559.400818 538.351257,562.159058 
	C540.253418,560.501892 539.716553,558.716003 539.807007,557.130127 
	C540.261902,549.151978 540.546326,541.163147 541.070923,533.190002 
	C542.567383,510.443756 543.896301,487.682007 545.787476,464.967682 
	C547.110596,449.076843 547.959717,433.100189 551.394897,417.444946 
	C555.241394,399.915222 564.454529,392.305542 582.374878,393.021729 
	C601.823547,393.798981 621.236938,395.227509 640.322388,399.550720 
	C658.098999,403.577454 667.681091,415.551575 667.525818,433.721191 
	C667.353455,453.885498 665.846375,473.990051 663.990845,494.029449 
	C661.138916,524.831238 657.444580,555.556580 653.898682,586.290283 
	C653.512085,589.640320 654.213745,590.654480 657.479675,591.028015 
	C673.213684,592.827148 688.997009,593.590454 704.819519,593.815979 
	C716.150879,593.977356 724.736023,598.817322 729.716431,609.165833 
	C733.283264,616.576904 733.763123,624.590881 733.044739,632.630066 
	C732.052734,643.730408 730.567566,654.764648 728.361694,665.712402 
	C724.023743,687.241760 710.823486,698.320374 688.848633,698.201538 
	C680.195557,698.154724 671.541443,697.643433 662.895813,697.190125 
	C659.522278,697.013245 658.152222,698.143127 658.049255,701.685669 
	C657.917236,706.230713 659.399292,710.175781 661.313171,714.086792 
	C665.614624,722.877014 668.024231,732.110046 668.391663,741.934631 
	C668.552551,746.235840 668.873291,750.783691 671.110962,754.525574 
	C675.823669,762.406128 678.900757,770.432068 678.425537,779.940796 
	C678.155579,785.341370 682.532349,787.552795 687.848206,785.748108 
	C695.416748,783.178589 702.971497,780.600037 710.722168,778.592102 
	C716.446594,777.108948 721.413269,774.012878 726.031006,770.366455 
	C734.726990,763.499695 740.833374,754.658203 745.548218,744.757629 
	C747.123962,741.448669 748.383850,737.787415 751.569214,735.713684 
	C760.964355,729.597107 763.725037,720.683105 762.577209,710.175171 
	C762.035400,705.216125 763.854736,701.564575 767.188843,698.114441 
	C772.197754,692.931152 777.755005,688.422913 783.552429,684.220886 
	C787.872131,681.089905 790.609497,676.918701 791.445129,671.905823 
	C793.075745,662.123352 795.070984,652.384338 793.880188,642.262756 
	C793.276917,637.135437 791.840088,632.151245 791.667236,626.973633 
	C791.200562,612.992371 797.016602,601.115540 804.481628,589.044006 
M314.851746,310.375336 
	C317.948120,309.377106 321.138519,309.617950 324.277496,309.875275 
	C331.679230,310.482025 338.509003,309.113068 344.685944,304.799744 
	C346.169434,303.763824 347.911224,303.068909 349.592285,302.353668 
	C351.008331,301.751160 352.529785,301.451935 353.748108,302.800476 
	C355.108337,304.306061 354.639130,305.929291 353.742645,307.415924 
	C352.884796,308.838562 351.690552,310.068451 350.909332,311.525269 
	C348.923065,315.229340 344.912811,317.667358 343.882294,322.411896 
	C346.352234,322.626465 348.435760,323.266388 350.844330,322.322266 
	C349.860352,318.548828 352.547882,315.958191 355.275909,316.227997 
	C359.704010,316.665924 362.178497,320.178925 361.803650,325.169159 
	C364.190277,318.645538 363.588715,316.656921 358.263519,314.389099 
	C354.646851,312.848938 354.045135,310.464661 355.431854,307.179840 
	C356.659332,304.272095 358.280640,301.494690 359.187408,298.496216 
	C360.423767,294.407898 360.190887,290.421844 355.715942,288.178253 
	C348.573120,284.597137 344.354309,279.456207 344.557465,270.907532 
	C344.664154,266.418243 342.237335,265.491150 338.280334,267.828827 
	C335.135071,269.686981 332.286041,272.128693 328.997498,273.641968 
	C324.518402,275.703094 320.671234,272.840454 321.072296,268.188965 
	C321.852325,259.142517 321.854797,259.104645 312.816711,258.514343 
	C310.497650,258.362885 308.147552,258.408142 305.830353,258.594818 
	C303.981415,258.743744 301.970337,259.283356 301.203033,261.123871 
	C298.860748,266.742188 294.479431,271.472961 294.247467,278.037323 
	C294.103516,282.112152 292.048462,285.842072 288.270630,287.197998 
	C282.928162,289.115448 281.152710,292.909973 279.971924,297.872162 
	C279.153198,301.312958 277.301666,304.928864 272.842834,303.982574 
	C268.823395,303.129517 268.045959,299.469635 268.627777,296.001801 
	C269.520172,290.682831 267.057129,287.895874 262.497711,286.053162 
	C255.332581,283.157288 247.448013,280.789673 249.141678,269.485016 
	C247.108551,270.930176 246.255524,272.383362 245.163925,273.627167 
	C212.276703,311.100159 188.530518,353.764771 173.397537,401.171295 
	C164.715836,428.368164 159.532349,456.299438 157.637482,484.844391 
	C157.367661,488.908997 158.209625,491.306824 161.855194,492.612061 
	C167.089752,494.486237 170.972610,497.749939 173.804474,502.601532 
	C175.467651,505.450897 177.786728,508.554474 180.962311,509.343201 
	C189.180939,511.384369 192.535385,517.606506 194.515594,524.584412 
	C196.982925,533.278809 203.438004,537.857727 210.347183,542.312317 
	C212.342789,543.598999 213.677872,543.588257 215.385376,541.541382 
	C218.485077,537.825623 220.312454,538.074280 222.981934,542.248962 
	C226.088913,547.107849 227.597504,552.539490 228.215439,558.241150 
	C229.028442,565.742798 226.698166,572.277710 222.536362,578.453369 
	C218.034805,585.133179 214.853287,592.203735 218.904297,600.409363 
	C219.837692,602.299988 218.702377,603.976868 217.910187,605.605652 
	C215.363556,610.841614 215.911987,615.616821 219.992767,619.851196 
	C223.283142,623.265381 225.281662,627.484497 227.589371,631.539734 
	C238.408051,650.550964 247.504700,670.736206 267.952484,682.396545 
	C276.134125,687.062134 280.180603,695.759338 282.416321,704.998047 
	C287.270752,725.057922 289.986206,745.531738 294.268066,765.701172 
	C296.377380,775.636841 298.652161,785.480591 303.007446,794.783020 
	C311.241150,812.369263 327.726746,819.665955 343.618134,827.619995 
	C345.554932,828.589355 348.893585,829.621826 351.576447,826.966858 
	C349.000427,823.950256 344.298981,822.172791 345.968719,817.212952 
	C347.244629,813.422974 346.357605,809.935730 344.902130,806.550232 
	C343.178955,802.542053 344.771545,800.609741 348.576477,799.651184 
	C352.288452,798.716003 355.960297,797.616211 359.685059,796.738586 
	C362.853821,795.991882 364.600464,793.877991 365.192291,790.936096 
	C365.770050,788.063904 363.616882,786.365784 361.656250,784.801697 
	C359.582123,783.147034 357.285278,781.759155 355.297363,780.013611 
	C354.142944,778.999939 353.649628,777.435303 354.697052,775.942505 
	C355.596313,774.661011 356.957123,774.659424 358.309540,775.007874 
	C360.727539,775.630798 363.188599,776.152466 365.526886,777.004211 
	C369.486633,778.446655 372.191742,777.426270 374.177246,773.641541 
	C377.967407,766.416870 381.937408,759.285950 385.881958,752.143250 
	C387.486786,749.237244 387.957458,746.303955 387.138641,743.013367 
	C385.884674,737.974182 387.652100,733.885010 391.600861,730.603149 
	C396.035339,726.917725 401.030762,724.096680 406.582428,722.882202 
	C413.194031,721.435913 417.137726,717.818542 418.820312,711.372131 
	C419.363708,709.290161 420.496796,707.363831 421.060425,705.284973 
	C422.169312,701.195129 423.620148,697.103638 422.670990,692.884094 
	C420.870453,692.106262 419.419861,692.690796 417.942047,692.810913 
	C397.205444,694.496521 376.505157,696.962280 355.642731,696.248169 
	C337.135773,695.614624 324.597260,685.147949 320.835052,667.019775 
	C319.384003,660.027893 318.556305,652.904968 317.495697,645.834045 
	C312.486847,612.439758 308.015503,578.981201 305.636169,545.277039 
	C305.478668,543.046021 305.053528,540.988342 303.191132,539.496338 
	C300.405945,537.265015 298.439117,534.335144 296.715271,531.303406 
	C294.924561,528.154053 292.503784,527.002136 288.915619,527.207825 
	C282.259033,527.589355 275.622314,527.558960 269.181458,525.212524 
	C261.765930,522.510925 261.690735,522.600647 258.407806,529.552429 
	C257.427216,531.628845 256.383545,533.688721 253.709915,533.035767 
	C251.175644,532.416809 250.812225,530.133728 250.728210,527.856750 
	C250.603653,524.481445 252.516144,521.539490 252.993576,517.677002 
	C244.463623,521.367615 236.366348,524.442749 233.050125,534.035583 
	C231.253250,539.233337 229.138306,539.464783 225.042252,535.605591 
	C222.792572,533.486023 220.720993,533.073608 217.839203,534.099609 
	C209.948624,536.908875 206.613892,534.995605 203.511276,527.040344 
	C201.248093,521.237366 202.476517,515.602356 203.213120,509.835388 
	C204.564560,499.254730 205.104004,494.136505 192.417206,495.202332 
	C188.484741,495.532684 186.742905,493.334808 187.479980,489.146179 
	C188.763962,481.849487 191.664413,475.143005 194.453796,468.372467 
	C194.979553,467.096344 196.183929,465.637085 194.578125,464.293121 
	C193.329605,463.248260 191.778397,463.202545 190.292786,463.603149 
	C185.657974,464.852905 182.475113,467.755463 180.450623,472.122711 
	C178.837585,475.602325 176.478790,478.523987 172.153961,478.166321 
	C167.467850,477.778717 164.915237,474.330170 164.164795,470.305695 
	C161.348038,455.200317 163.822418,441.057770 173.991745,429.102905 
	C177.807831,424.616760 182.932373,421.132629 189.379913,422.783844 
	C193.332001,423.796021 196.072418,423.095581 199.353912,420.595123 
	C208.611237,413.541168 218.042664,417.727997 219.403992,428.995056 
	C219.860870,432.776428 220.714828,436.522491 221.602829,440.233124 
	C221.975922,441.792084 222.612320,443.697998 224.779602,443.473846 
	C227.060699,443.237946 227.539581,441.345612 227.699860,439.428833 
	C228.032700,435.448059 229.011597,431.373779 228.507202,427.496368 
	C226.470215,411.837585 232.912598,401.120178 246.729050,394.307343 
	C247.025421,394.161224 247.269714,393.910156 247.565155,393.761475 
	C251.907852,391.576294 254.528900,387.860962 255.400757,383.317139 
	C257.170258,374.095032 262.719971,368.299072 270.902008,364.452606 
	C273.136383,363.402222 275.751190,362.449249 276.798798,360.039215 
	C280.292450,352.002258 287.113678,347.459290 294.316040,343.591797 
	C300.318146,340.368835 306.566101,337.654419 308.792969,330.532288 
	C310.311737,325.674805 315.739136,324.283325 318.274170,319.721039 
	C314.290741,318.405304 311.311249,319.492157 308.340851,321.105530 
	C305.714111,322.532166 303.056641,323.940552 300.292145,325.058807 
	C298.947113,325.602875 297.213593,325.620575 296.316803,323.979645 
	C295.498108,322.481567 296.638245,321.555878 297.545898,320.550995 
	C298.400635,319.604706 299.964142,319.044891 299.802429,317.465607 
	C299.199524,311.579132 304.263550,310.377136 307.735046,307.998169 
	C309.147614,307.030121 311.012695,307.168396 311.698242,309.435242 
	C312.085938,310.717255 313.122314,310.625183 314.851746,310.375336 
M653.264648,479.919128 
	C654.225708,463.803528 656.110596,447.735596 655.714539,431.550018 
	C655.452454,420.841156 650.229980,413.570984 639.908203,411.272430 
	C619.207153,406.662598 598.194031,404.525757 576.971497,405.189545 
	C569.188171,405.433014 565.046082,408.957947 563.349426,416.672058 
	C561.995056,422.830292 561.042480,429.114349 560.434692,435.393250 
	C556.955139,471.338562 554.183655,507.351074 552.487122,543.416626 
	C550.875305,577.679993 550.169495,611.987427 549.224670,646.279846 
	C548.846375,660.008667 554.877258,668.171021 567.958008,672.245117 
	C571.285034,673.281372 574.716553,674.022034 578.138367,674.707153 
	C597.401611,678.564331 616.847290,681.145935 636.391296,683.088928 
	C655.110901,684.950012 673.811462,687.081848 692.667114,686.651428 
	C704.239990,686.387329 712.031067,680.648926 715.163696,669.609375 
	C719.552490,654.143066 721.743713,638.338867 720.857300,622.219421 
	C720.222839,610.681519 714.554565,605.386719 703.014160,605.304871 
	C684.678955,605.174866 666.423828,603.790405 648.236877,601.573608 
	C641.379761,600.737732 639.981140,598.646667 640.935730,591.949951 
	C646.196899,555.043030 650.257874,518.005127 653.264648,479.919128 
M323.393097,605.205688 
	C326.042755,623.808044 328.792328,642.396973 331.309570,661.017212 
	C333.232056,675.237976 340.688721,683.557800 353.504089,684.622620 
	C363.644257,685.465149 373.812073,684.950745 383.959869,684.229553 
	C402.719482,682.896240 421.430389,681.059692 440.079498,678.651306 
	C454.758667,676.755554 469.508240,675.158447 483.908600,671.615540 
	C496.970734,668.402039 503.427002,659.719421 503.707611,646.339722 
	C503.865387,638.816956 503.278748,631.339111 502.565033,623.893250 
	C501.868469,616.626343 501.129700,609.301392 498.736267,602.303223 
	C495.227142,592.043091 489.193878,588.405273 478.583649,590.173157 
	C477.270905,590.391846 475.954376,590.587280 474.640533,590.799377 
	C456.742157,593.689392 438.929260,597.154114 420.804718,598.498962 
	C416.239502,598.837708 413.887665,597.221191 413.678223,592.476746 
	C412.422485,564.031372 410.918182,535.595764 409.845032,507.143738 
	C408.878235,481.510437 408.384888,455.859467 407.601868,430.218781 
	C407.515930,427.404907 407.131256,424.552032 406.483612,421.812134 
	C404.162567,411.992493 398.950714,408.543823 388.020691,409.528076 
	C382.720276,410.005341 377.414886,410.537262 372.154602,411.329224 
	C358.160156,413.436188 344.281494,416.155121 330.753479,420.378387 
	C321.738525,423.192719 316.790985,429.054810 316.021088,438.905090 
	C315.383331,447.064240 315.283508,455.208069 315.118134,463.357361 
	C314.556854,491.017670 315.385406,518.660950 317.489502,546.233337 
	C318.969482,565.627441 321.356293,584.952454 323.393097,605.205688 
M276.264771,780.236816 
	C281.625153,784.710999 286.379517,790.399597 294.462891,789.671509 
	C294.554504,789.012146 294.710541,788.654663 294.629608,788.362915 
	C287.409912,762.338013 283.830963,735.563843 278.422485,709.167236 
	C276.027130,697.476562 270.250031,688.301331 260.114868,682.418030 
	C249.598969,676.313599 242.410004,667.533691 236.646912,657.184814 
	C233.650833,651.804626 230.444199,646.539795 227.257278,641.268372 
	C223.051682,634.312073 220.024399,626.687805 214.425934,620.505859 
	C210.789139,616.490051 211.068039,611.310852 212.520767,606.269470 
	C213.109482,604.226562 214.072922,602.288940 213.119293,599.992432 
	C210.693878,594.151733 212.055878,588.474304 214.566193,583.085205 
	C216.245667,579.479736 218.560806,576.175049 220.502609,572.686279 
	C225.544678,563.627319 223.815674,554.894043 219.276489,545.569763 
	C215.151611,551.017029 211.371277,548.776123 207.197556,546.361633 
	C197.619461,540.820740 191.426025,532.800842 188.185516,522.307861 
	C187.231064,519.217346 185.679016,516.433228 182.225647,515.435974 
	C176.239624,513.707458 172.138687,509.610596 169.163147,504.450806 
	C166.600357,500.006805 162.688583,498.104156 158.126068,496.884125 
	C156.696884,498.701355 157.123199,500.613495 157.102325,502.366211 
	C156.949631,515.185791 157.129700,527.978455 158.083206,540.794189 
	C160.496231,573.226990 167.895721,604.501831 178.878235,635.006958 
	C199.143692,691.296570 231.923660,739.224060 276.264771,780.236816 
M702.031494,366.459320 
	C699.307068,363.895599 697.563416,360.649506 695.944519,357.367371 
	C694.271912,353.976318 692.002747,353.384308 688.811340,355.022369 
	C689.112915,357.982269 691.437256,359.542206 692.273560,361.894318 
	C693.181091,364.447021 690.790710,373.058044 688.363220,374.498383 
	C684.383362,376.859802 681.726746,373.987030 679.254822,371.582489 
	C673.379333,365.867279 668.565308,359.303925 664.373291,352.085480 
	C664.480225,353.910217 665.207397,356.346558 663.508118,357.075348 
	C659.117615,358.958191 659.193054,363.428009 657.157227,366.646820 
	C656.014465,368.453491 654.969055,370.686493 652.351746,370.427277 
	C649.701782,370.164825 649.061707,367.842346 648.557190,365.729126 
	C647.424194,360.982910 644.577881,357.882324 640.149597,355.890717 
	C632.931396,352.644379 626.374329,348.422699 621.574707,341.927155 
	C619.965942,339.750000 618.320312,339.369446 616.217590,341.346130 
	C611.664856,345.625916 606.520142,347.644409 600.215942,345.513824 
	C598.671997,344.992035 596.564575,344.852631 596.289917,347.228973 
	C595.706848,352.273560 592.139282,354.651123 588.173950,356.564728 
	C585.009277,358.091888 583.191956,360.563049 582.637451,363.797974 
	C581.856201,368.355072 580.313660,372.539612 577.013977,376.802612 
	C578.480713,376.364044 579.106323,376.201935 579.715149,375.991394 
	C594.603943,370.842316 609.793274,367.313873 625.669678,367.651245 
	C632.197205,367.789948 636.419739,372.129974 635.029541,378.325500 
	C633.863525,383.521851 636.198059,385.645233 640.271790,386.692719 
	C649.881592,389.163788 658.692810,393.403870 667.355408,398.079620 
	C668.788818,398.853333 670.448792,399.324127 672.061768,399.618073 
	C673.954407,399.963013 675.078247,399.263550 675.388794,397.019806 
	C676.537476,388.720947 680.006531,386.318817 688.244202,388.219940 
	C693.266541,389.379089 698.229004,390.839844 703.152344,392.376465 
	C709.928101,394.491302 716.856140,395.615936 723.847107,394.497925 
	C728.263245,393.791687 732.539734,392.413605 737.117310,392.607208 
	C739.921753,392.725830 741.469604,390.782532 741.584778,388.191376 
	C741.769287,384.040375 741.693115,379.865692 741.478455,375.713867 
	C741.361267,373.445862 740.127869,371.867157 737.508606,372.533936 
	C731.744507,374.001221 725.865845,372.791046 720.094360,373.349792 
	C713.090881,374.027771 707.302551,372.095459 702.031494,366.459320 
M276.985260,247.256683 
	C281.843079,244.306046 286.902374,243.869781 291.691071,246.528152 
	C295.423187,242.141251 298.776367,238.687393 295.954102,232.587479 
	C294.377502,229.179810 298.970459,224.763931 302.557770,225.178680 
	C305.311951,225.497086 306.245056,228.399231 308.645172,229.587631 
	C311.461334,227.962494 314.202911,226.057709 317.199188,224.726013 
	C321.825714,222.669754 328.629578,225.237671 331.026245,229.736237 
	C333.738770,234.827744 329.283020,236.797638 326.585571,239.455109 
	C323.475769,242.518845 319.157928,243.740463 314.321014,246.741745 
	C320.454620,245.875244 323.944397,248.420700 327.597321,250.827362 
	C331.099365,253.134583 335.309174,255.530762 339.104797,252.591690 
	C342.830719,249.706589 348.900848,247.390747 346.072937,240.429062 
	C346.017761,240.293121 346.467041,239.952225 346.831024,239.534866 
	C351.736328,240.289810 357.050415,243.029465 361.413910,238.166534 
	C361.548676,236.544479 360.150269,235.793777 359.624207,234.944611 
	C356.916870,230.574478 351.290070,228.329651 350.423157,222.482620 
	C338.886719,216.428848 326.706329,212.992996 313.575592,213.373398 
	C312.174103,213.414001 310.991882,213.927582 309.870361,214.680023 
	C290.734619,227.518585 273.916290,242.988953 258.390015,259.942780 
	C264.419159,255.891113 269.903564,251.082397 276.985260,247.256683 
M562.254883,285.376923 
	C563.616272,288.308899 561.903320,289.955780 559.847107,291.662842 
	C558.237000,292.999481 555.955383,294.890991 558.404602,296.914490 
	C561.202148,299.225677 561.055786,301.103333 558.285522,303.407990 
	C561.546448,303.134003 564.178345,302.807770 566.818298,302.718231 
	C569.969849,302.611359 573.148315,302.824799 576.189209,301.768494 
	C579.634338,300.571869 581.489258,295.688354 579.324646,293.490936 
	C571.677856,285.728271 564.304138,277.774719 559.835388,267.610992 
	C559.327332,266.455475 558.935486,265.056915 557.357910,264.564270 
	C553.100159,265.590973 552.365417,268.148651 553.129822,272.371033 
	C554.161743,278.070496 559.065491,280.581238 562.254883,285.376923 
M757.908081,424.642303 
	C756.667419,423.146362 755.426758,421.650421 754.186096,420.154480 
	C757.816406,428.358063 761.019043,436.877014 767.350891,443.251495 
	C770.611572,446.534210 772.592773,449.893463 773.500183,454.260071 
	C774.341248,458.307251 774.426331,462.788727 777.109436,466.089813 
	C784.450867,475.122101 789.996094,485.502441 798.153625,493.908722 
	C799.611023,495.410522 800.879089,497.109863 803.745972,498.220367 
	C797.890198,484.928101 793.716248,471.614929 781.703491,463.108734 
	C779.296631,461.404388 778.269531,458.795624 777.510193,455.950439 
	C776.531006,452.281433 776.863098,447.744934 773.996582,445.176514 
	C767.539856,439.391266 763.941833,431.533234 757.908081,424.642303 
M651.962524,276.037811 
	C651.895203,271.544922 651.819336,267.050812 654.389709,262.478516 
	C648.239258,260.916656 646.729065,255.949188 644.681946,251.129684 
	C642.213745,245.318939 644.765991,241.056641 648.139038,236.578049 
	C643.200684,238.807068 642.765259,244.812622 638.397949,247.285889 
	C637.531982,247.776276 637.204956,248.987503 637.705872,249.977509 
	C638.377930,251.305923 639.248352,252.534973 640.048218,253.797470 
	C641.024902,255.339264 642.726562,256.961212 642.151733,258.715607 
	C639.595459,266.516937 643.385193,276.922546 632.693970,281.511383 
	C637.931335,281.115326 642.865723,280.489746 647.803589,279.893219 
	C649.741333,279.659119 651.416931,279.129028 651.962524,276.037811 
M846.353882,421.269196 
	C837.101318,420.395294 830.430664,415.112488 824.494202,408.530334 
	C822.247131,406.038910 820.314392,402.894196 815.688416,403.440887 
	C816.868896,407.359467 819.594055,409.582275 821.945374,412.028748 
	C825.402283,415.625519 829.296997,418.810333 832.076782,423.034302 
	C836.017090,429.021790 837.697144,429.308411 843.598206,425.060974 
	C849.678345,420.684692 850.130676,420.705383 855.763062,426.088531 
	C860.055054,430.190521 865.303345,432.771851 870.432434,436.778412 
	C870.725769,428.442627 870.371277,428.046783 863.678528,426.814758 
	C860.586731,426.245605 857.171021,426.049042 855.062561,423.359741 
	C852.851562,420.539886 850.315491,420.062866 846.353882,421.269196 
M547.133606,283.907471 
	C546.062012,282.620758 544.701111,280.840637 543.093811,282.120148 
	C540.855530,283.902100 536.788208,285.730469 537.431152,288.332642 
	C538.244263,291.623352 537.075867,294.282806 536.691589,297.217499 
	C545.353394,297.189148 548.542908,293.329071 547.133606,283.907471 
z"/>
<path fill="#000000" opacity="1.000000" stroke="none" 
	d="
M815.163696,728.845337 
	C812.563110,729.872192 810.214722,730.730286 807.815491,731.408264 
	C802.265320,732.976257 798.853882,731.319763 797.670776,725.842224 
	C795.963928,717.940186 795.293579,709.789429 799.274353,702.418030 
	C802.590149,696.277893 803.572510,689.871277 803.565552,683.182739 
	C803.558350,676.272339 806.022705,670.961304 812.130859,667.387512 
	C818.100525,663.894714 823.350952,659.696533 825.954346,652.860657 
	C826.626282,651.096130 828.171021,649.494019 829.672974,648.249451 
	C833.300598,645.243103 837.016174,645.926331 839.154480,650.158325 
	C842.494812,656.769592 843.473511,663.604126 840.914001,670.893127 
	C834.894531,688.035522 827.448120,704.577576 820.139648,721.563110 
	C818.866333,724.391907 817.345703,726.644226 815.163696,728.845337 
M829.905334,686.456665 
	C832.244263,680.046204 834.784485,673.700073 836.861206,667.205750 
	C838.661560,661.575500 837.860901,656.233032 833.972778,651.328674 
	C832.905518,652.020508 832.285217,652.301025 831.828918,652.748718 
	C831.242310,653.324219 830.561646,653.957092 830.310303,654.697266 
	C827.658569,662.506287 821.533386,667.020081 814.893433,671.021973 
	C809.939697,674.007629 807.884216,678.419373 808.259949,684.048401 
	C808.714722,690.862671 807.455688,697.219666 804.185181,703.303345 
	C801.438965,708.411743 800.829834,714.112366 801.439575,719.829346 
	C801.704041,722.308594 801.200867,725.771057 804.448059,726.562561 
	C807.656189,727.344543 810.739441,725.957092 812.925049,723.394043 
	C814.092163,722.025391 814.925720,720.330688 815.717163,718.690247 
	C820.709229,708.343445 825.511963,697.910767 829.905334,686.456665 
z"/>
<path fill="#000000" opacity="1.000000" stroke="none" 
	d="
M431.395081,250.347076 
	C426.900726,255.357742 423.898376,260.957245 420.446198,266.251648 
	C415.947968,273.150208 413.616180,273.682159 405.868561,271.603607 
	C386.212921,266.330292 384.305634,250.080124 386.928009,233.364044 
	C387.633453,228.867233 392.347321,226.799606 394.678772,222.814346 
	C391.779541,220.230179 390.482422,217.078018 390.764893,213.160233 
	C391.007599,209.793808 388.645630,208.412811 385.674988,208.270721 
	C380.857239,208.040298 376.018311,208.205963 371.206787,207.907181 
	C367.630249,207.685089 363.247772,207.947281 362.408356,203.168701 
	C361.634460,198.763412 364.683960,196.106552 368.260864,194.236816 
	C377.698517,189.303482 387.121857,184.337601 396.655762,179.595535 
	C402.591370,176.643219 408.999298,176.164764 415.605408,176.290237 
	C424.994324,176.468552 434.116425,174.236267 442.960052,171.346878 
	C462.878448,164.839157 482.509705,165.094238 501.981445,172.894989 
	C504.770660,174.012390 507.480469,173.760040 510.304688,173.260208 
	C514.372009,172.540359 518.403564,171.182770 522.626465,172.399841 
	C524.463440,172.929291 526.242493,173.561340 526.562256,175.701065 
	C526.871460,177.769958 525.635498,179.216232 523.945923,180.142670 
	C520.143005,182.227936 516.344727,184.311432 513.200195,187.355682 
	C511.516144,188.986084 509.656128,190.698868 510.826813,193.385971 
	C513.605896,199.764908 510.522644,204.091766 505.606079,207.349640 
	C501.470520,210.089981 497.981445,212.023880 499.777344,218.471359 
	C500.997559,222.851974 497.065765,226.328827 492.685638,228.138474 
	C485.084900,231.278702 477.083191,232.896286 468.997253,233.924850 
	C464.084808,234.549759 460.145691,236.538559 456.784607,240.009827 
	C453.396149,243.509384 449.362762,245.364670 444.376099,245.537079 
	C439.738800,245.697403 434.954865,245.983978 431.395081,250.347076 
M398.407257,183.916565 
	C387.786621,188.858093 378.002869,195.239990 366.596832,201.368073 
	C373.423889,203.232162 378.890503,202.426804 384.276001,202.697815 
	C392.161835,203.094635 395.352600,206.004776 396.241730,213.740997 
	C396.376953,214.917328 396.558380,215.960419 397.331085,216.959778 
	C401.855774,222.811371 401.668396,224.413681 396.080444,229.612106 
	C394.275513,231.291245 392.100189,232.606155 391.390686,235.266983 
	C387.393921,250.256195 393.626648,261.960846 407.920044,266.801300 
	C411.608307,268.050323 413.949402,267.345947 415.852844,264.089050 
	C419.042542,258.631287 422.211212,253.170914 426.303833,248.284561 
	C430.306946,243.505112 435.289154,240.733734 441.470734,240.917953 
	C447.114899,241.086136 451.461761,238.961960 455.147583,234.968872 
	C458.691589,231.129456 463.040436,229.164200 468.276764,228.566864 
	C475.552643,227.736862 482.730377,226.235382 489.613861,223.615173 
	C493.277069,222.220749 495.552612,220.185501 494.027588,215.667145 
	C492.603058,211.446442 494.188660,208.274170 498.259888,206.228210 
	C500.173737,205.266434 501.913879,203.907211 503.604462,202.566376 
	C505.641632,200.950684 507.302856,198.928635 506.364685,196.129974 
	C504.019714,189.135025 507.365784,184.648849 512.737854,180.958801 
	C514.265808,179.909286 515.796265,178.863480 517.325623,177.815964 
	C508.861816,180.264053 501.086365,179.449921 493.702942,174.776016 
	C492.630951,174.097412 491.177704,173.851517 489.871918,173.737747 
	C474.796997,172.424377 459.737518,170.586609 444.970978,176.172653 
	C434.617523,180.089264 423.911407,182.299240 412.690582,181.055481 
	C407.976593,180.532959 403.411957,181.557663 398.407257,183.916565 
z"/>
<path fill="#000000" opacity="1.000000" stroke="none" 
	d="
M230.117462,478.927032 
	C228.265732,479.081085 227.086578,478.633484 226.769196,477.027802 
	C225.487000,470.541199 220.342606,465.496124 213.884140,464.302979 
	C210.413177,463.661743 205.889801,463.981659 205.860703,458.811920 
	C205.832947,453.881073 209.794189,452.261261 213.799561,451.240692 
	C219.639359,449.752716 225.129807,451.393860 230.042755,454.283112 
	C234.879517,457.127594 239.526703,460.443329 243.765060,464.119568 
	C249.327957,468.944672 248.130112,474.000549 241.111038,476.303589 
	C237.663849,477.434692 234.035568,478.013855 230.117462,478.927032 
M236.806549,464.710724 
	C229.348679,460.121979 222.529388,453.195160 212.379608,458.033966 
	C220.950180,459.715576 226.436493,465.840454 232.408447,471.258179 
	C234.323212,472.995178 239.955261,472.699097 240.961060,470.672119 
	C242.496582,467.577484 239.198853,466.978821 237.784393,465.425812 
	C237.675156,465.305878 237.516022,465.231415 236.806549,464.710724 
z"/>
<path fill="#000000" opacity="1.000000" stroke="none" 
	d="
M521.072021,233.785080 
	C522.294067,235.201157 523.336060,236.289886 524.199219,237.505554 
	C526.832703,241.214432 526.318237,244.537201 522.282654,246.672363 
	C513.877197,251.119568 504.834595,253.096268 495.328949,252.129623 
	C490.530701,251.641678 484.335632,245.461548 483.237244,240.645996 
	C482.274292,236.424377 485.893311,231.375580 490.380249,231.952744 
	C498.590088,233.008804 506.579193,232.423309 514.622131,230.938751 
	C517.096985,230.481934 519.131287,231.729263 521.072021,233.785080 
M489.100555,238.077164 
	C488.402985,242.617935 491.527832,246.462219 496.503021,246.862015 
	C503.191345,247.399460 509.777283,246.669525 516.091003,244.335770 
	C517.769958,243.715149 520.667114,243.481079 519.893799,240.723587 
	C519.182861,238.188751 517.242432,235.108429 514.417236,235.858459 
	C506.230835,238.031738 497.905365,236.529556 489.100555,238.077164 
z"/>
<path fill="#000000" opacity="1.000000" stroke="none" 
	d="
M275.259888,483.272430 
	C267.400848,486.711365 259.819092,489.587891 251.403778,487.493713 
	C245.731064,486.082062 244.283600,482.740112 246.760727,477.475952 
	C251.216583,468.006683 258.258728,467.740845 267.071686,472.122437 
	C270.575592,473.864471 273.377960,476.936005 277.606140,477.358398 
	C279.030365,477.500702 280.025513,478.690399 279.731903,480.227600 
	C279.320770,482.380249 277.558380,482.958496 275.259888,483.272430 
M254.831131,475.010345 
	C253.110123,476.835327 251.786621,478.842285 251.736771,481.993561 
	C257.469177,483.318604 262.912018,483.375763 268.506775,480.087555 
	C264.895020,475.791168 261.014648,473.278839 254.831131,475.010345 
z"/>
<path fill="#000000" opacity="1.000000" stroke="none" 
	d="
M573.861328,647.310303 
	C577.964355,648.257446 581.757751,648.860352 585.401917,649.958435 
	C588.067261,650.761597 590.247131,652.690247 590.030823,655.755554 
	C589.806763,658.930237 587.116394,660.468140 584.447083,660.536560 
	C575.722717,660.760010 566.844177,659.928345 559.674805,654.701172 
	C551.830383,648.981934 551.243164,640.149048 552.544373,631.206543 
	C553.166138,626.933228 553.859497,622.662964 554.738892,618.436707 
	C555.439941,615.067200 557.228882,612.267883 561.148926,612.915833 
	C564.804138,613.519897 566.291565,616.453674 566.157166,619.951538 
	C565.959534,625.096436 565.261353,630.227539 565.187500,635.370422 
	C565.083557,642.609253 566.691650,644.657104 573.861328,647.310303 
z"/>
<path fill="#000000" opacity="1.000000" stroke="none" 
	d="
M605.212646,663.625244 
	C600.976074,664.985352 598.247009,663.516296 597.089478,659.809204 
	C596.156555,656.821472 597.875916,654.667114 600.558777,653.494263 
	C603.651611,652.142090 606.155823,653.454773 607.798889,656.035583 
	C609.790894,659.164307 608.680786,661.687622 605.212646,663.625244 
z"/>
<path fill="#000000" opacity="1.000000" stroke="none" 
	d="
M556.720764,602.485474 
	C556.132996,598.611877 557.604370,596.163574 560.997681,595.377380 
	C563.613098,594.771423 565.464600,596.303711 566.335876,598.781860 
	C567.283813,601.477966 566.515259,603.804138 564.109741,605.270325 
	C560.863892,607.248474 558.430664,606.101746 556.720764,602.485474 
z"/>
<path fill="#000000" opacity="1.000000" stroke="none" 
	d="
M333.730713,637.365723 
	C333.991577,633.093872 335.257477,629.677246 339.653229,629.749390 
	C343.705658,629.815857 344.942841,633.128784 345.416168,636.698914 
	C346.026184,641.300232 346.505676,645.934082 347.429596,650.474915 
	C348.797607,657.198242 352.076660,659.756165 358.881256,659.844910 
	C362.870880,659.896912 366.871704,659.643066 370.849792,659.856750 
	C374.416504,660.048340 377.723145,661.503418 377.904297,665.519775 
	C378.079651,669.407104 374.789917,670.626343 371.547485,671.327942 
	C364.311584,672.893616 356.951813,672.814514 349.700165,672.012329 
	C341.680420,671.125061 336.065369,663.957214 334.827637,653.717163 
	C334.190826,648.448608 334.076843,643.116882 333.730713,637.365723 
z"/>
<path fill="#000000" opacity="1.000000" stroke="none" 
	d="
M324.203522,449.873047 
	C327.808502,448.178894 331.767853,448.318329 334.572968,445.127472 
	C334.906982,445.455322 335.240997,445.783142 335.575012,446.110992 
	C333.957428,452.418396 332.339874,458.725800 330.703064,465.108154 
	C327.471924,464.097992 328.619202,461.434296 327.392181,459.907562 
	C326.012207,462.024963 326.191254,464.785522 323.432892,467.701721 
	C322.914001,461.085938 322.395081,455.653290 324.203522,449.873047 
z"/>
<path fill="#000000" opacity="1.000000" stroke="none" 
	d="
M396.257690,666.129761 
	C395.803009,666.865662 395.554718,667.314941 395.193054,667.636902 
	C392.717834,669.840149 389.978241,670.647644 387.192413,668.397339 
	C385.091522,666.700317 384.183197,664.378540 385.781036,661.838623 
	C387.324615,659.384949 389.663879,658.145630 392.537384,659.047729 
	C395.743408,660.054260 397.576385,662.128357 396.257690,666.129761 
z"/>
<path fill="#000000" opacity="1.000000" stroke="none" 
	d="
M336.307159,623.133423 
	C335.110168,622.516052 334.115417,622.113037 333.543671,621.380127 
	C331.174042,618.342590 331.684357,615.342651 334.658508,613.238342 
	C337.153748,611.472900 339.861389,612.102600 341.422729,614.858643 
	C343.115540,617.846680 342.518524,620.619507 339.520294,622.525146 
	C338.750336,623.014465 337.651611,622.986450 336.307159,623.133423 
z"/>
</svg>